 <svg width="429" height="85" viewBox="0 0 429 85" fill="none" xmlns="http://www.w3.org/2000/svg">
  <path
    d="M30.2 2.10002C24.7482 3.23047 19.6115 5.54513 15.1532 8.88022C10.6949 12.2153 7.02391 16.4894 4.39998 21.4C0.699978 28.8 1.39998 30.4 1.39998 58.1V83.4H42.8L28.2 68.6C12.9 53.2 11 50.8 9.49998 44C8.37357 38.5952 8.85842 32.9787 10.8944 27.8469C12.9304 22.7151 16.428 18.2938 20.9534 15.1314C25.4788 11.9689 30.833 10.2044 36.3519 10.0566C41.8709 9.9088 47.3118 11.3843 52 14.3C57.6804 17.8453 61.9023 23.3089 63.9 29.7C64.9 32.7 65 34.9 64.9 39.2C64.5 48 62.4 51.8 53.2 61.2L45.9 68.5L53.4 76L60.9 83.4H72.9L65.4 75.9L57.9 68.4L62 64.4C65.6433 61.0489 68.5343 56.9631 70.4822 52.4123C72.4301 47.8615 73.3905 42.9493 73.3 38C73.4613 32.935 72.485 27.8982 70.4429 23.2602C68.4008 18.6222 65.3449 14.5011 61.5 11.2C59.0195 8.87554 56.2661 6.8608 53.3 5.20002C46.0888 1.86074 38.0364 0.780119 30.2 2.10002Z"
    fill="black"
    stroke="black"
    stroke-width="1.3"
  />
  <path
    d="M33 23C29.6476 23.8817 26.694 25.8757 24.6229 28.6553C22.5518 31.4349 21.4859 34.8355 21.6 38.3C21.6 43 23.9 46.9 30.9 53.7L37.2 59.9L43.3 53.7C50.6 46.3 52.3 43.4 52.3 38C52.3 31.8 49.4 26.8 44.3 24.2C40.7 22.7 36.7 22.2 32.9 23H33ZM41.2 32.3C42.9 33.4 43.8 35.7 43.8 38.4C43.8 41.4 40.2 44.6 37 44.6C30.7 44.6 27.7 37.3 32.3 33.1C33.3 32.1 34.4 31.3 34.9 31.1C36.3 30.6 39.4 31.1 41.2 32.3Z"
    fill="#FF5757"
    stroke="#FF5757"
    stroke-width="1.3"
  />
  <path
    d="M33.5 32.3C26.3 36.2 32.7 47.4 40 43.7C41.3515 42.9954 42.4124 41.8382 42.9974 40.4308C43.5823 39.0233 43.654 37.455 43.2 36C41.8 31.9 37.5 30.2 33.5 32.3Z"
    fill="white"
    stroke="white"
    stroke-width="1.3"
  />
  <path
    d="M417.3 60.6H428.9V69.3H406.7V20.8H428.9V29.3H417.2V40.7H428.2V49H417.2V60.6H417.3ZM381.8 49.4V69.3H371.3V20.8H389.9C396.1 20.8 399.2 24.1 399.2 30.7V36.3C399.2 40.3 397.8 42.9 395 44C397.5 44.9 398.7 46.9 398.7 50.1V69.3H388.3V50.9C388.3 49.9 387.8 49.4 386.9 49.4H381.8ZM381.8 27.9V42.1H387.3C387.7 42.1 388 41.9 388.3 41.6C388.6 41.3 388.7 41 388.7 40.6V29.3C388.7 28.9 388.6 28.5 388.3 28.3C388 28 387.7 27.8 387.3 27.8H381.8V27.9ZM362.8 29.9V60.3C362.8 66.8 359.7 70.1 353.5 70.1H343.5C337.3 70.1 334.2 66.8 334.2 60.3V30C334.2 23.4 337.2 20.1 343.5 20.1H353.5C359.7 20.1 362.8 23.4 362.8 30.1V29.9ZM352.3 61.4V28.6C352.3 28.2 352.1 27.9 351.8 27.6C351.6 27.3 351.2 27.1 350.8 27.1H346.1C345.7 27.1 345.4 27.3 345.1 27.6C344.8 27.9 344.7 28.2 344.7 28.6V61.4C344.686 61.5921 344.712 61.7849 344.776 61.9665C344.841 62.1481 344.942 62.3145 345.073 62.4552C345.204 62.596 345.363 62.7082 345.54 62.7847C345.717 62.8612 345.907 62.9005 346.1 62.9H350.8C351.2 62.9 351.6 62.7 351.8 62.4C352.1 62.1 352.3 61.7 352.3 61.4ZM317.2 61.3V53.9H327.2V60.2C327.2 66.7 324 70 317.8 70H308.4C302.2 70 299.1 66.7 299.1 60.2V29.9C299.1 23.3 302.1 20 308.4 20H317.8C324 20 327.1 23.3 327.1 30V34.5H317.1V28.7C317.1 28.2 317.1 27.9 316.7 27.6C316.5 27.3 316.1 27.1 315.7 27.1H311C310.6 27.1 310.3 27.3 310 27.6C309.7 27.9 309.6 28.2 309.6 28.6V61.4C309.586 61.5921 309.612 61.7849 309.676 61.9665C309.741 62.1481 309.842 62.3145 309.973 62.4552C310.104 62.596 310.263 62.7082 310.44 62.7847C310.617 62.8612 310.807 62.9005 311 62.9H315.7C316.1 62.9 316.5 62.7 316.7 62.4C317 62.1 317.2 61.7 317.2 61.4V61.3ZM290.9 33.5H280.9V29.7C280.9 29.3 280.8 28.9 280.5 28.7C280.2 28.4 279.9 28.2 279.5 28.2H275.4C275 28.2 274.6 28.4 274.4 28.6C274.1 28.9 274 29.3 274 29.7V38.3C274 38.7 274 39.1 274.3 39.3C274.6 39.7 275 39.8 275.3 39.8H282.1C288.3 39.9 291.4 43.2 291.4 49.8V60.1C291.4 66.7 288.4 70.1 282.1 70.1H273.3C267.1 70.1 264 66.7 264 60.1V55.1H274V60.5C274 60.9 274 61.3 274.3 61.5C274.6 61.9 275 62 275.3 62H280C280.4 62 280.8 61.9 281 61.6C281.3 61.3 281.5 60.9 281.5 60.6V51C281.5 50.6 281.3 50.2 281 50C280.8 49.7 280.4 49.5 280 49.5H273.3C267.1 49.5 264 46.2 264 39.6V29.9C264 23.3 267 20 273.3 20H281.6C287.8 20 290.9 23.3 290.9 30V33.5ZM239 49.4V69.3H228.5V20.8H247.3C253.5 20.8 256.6 24.1 256.6 30.7V36.3C256.6 40.3 255.2 42.9 252.3 44C254.8 44.9 256.1 46.9 256.1 50.1V69.3H245.6V50.9C245.6 49.9 245.1 49.4 244.1 49.4H239ZM239 27.9V42.1H244.6C245 42.1 245.3 41.9 245.6 41.6C245.8 41.3 246 41 246 40.6V29.3C246 28.9 245.8 28.5 245.5 28.3C245.3 28 245 27.8 244.5 27.8H239V27.9ZM210.1 60.6H221.7V69.3H199.6V20.8H221.7V29.3H210.1V40.7H220.9V49H210.1V60.6ZM181.7 20.8C187.9 20.8 191 24.1 191 30.7V59.3C191 65.9 187.9 69.2 181.7 69.2H162.4V20.7H181.7V20.8ZM180.5 60.6V29.4C180.5 29 180.3 28.6 180 28.4C179.8 28.1 179.5 27.9 179 27.9H173V62.1H179C179.5 62.1 179.8 61.9 180 61.6C180.3 61.3 180.5 61 180.5 60.6ZM154.6 69.3H144.1V29C144.1 28.6 144 28.3 143.7 28C143.4 27.7 143.1 27.5 142.7 27.5H138.7C138.3 27.5 137.9 27.7 137.7 28C137.4 28.3 137.2 28.6 137.2 29V69.3H126.7V29.9C126.7 23.3 129.8 20 136 20H145.3C151.5 20 154.6 23.3 154.6 30V69.3ZM108.3 20.8H118.9V60.1C118.9 66.7 115.8 70.1 109.6 70.1H100.3C94.1 70.1 91 66.7 91 60.1V20.8H101.5V61.1C101.486 61.2921 101.512 61.4849 101.576 61.6665C101.641 61.8481 101.742 62.0145 101.873 62.1553C102.004 62.296 102.163 62.4082 102.34 62.4847C102.517 62.5612 102.707 62.6005 102.9 62.6H106.9C107.3 62.6 107.7 62.4 107.9 62.1C108.2 61.8 108.4 61.4 108.4 61.1V20.8H108.3Z"
    fill="black"
  />
</svg>