<svg width="339" height="252" xmlns="http://www.w3.org/2000/svg" fill="none" viewBox="0 0 339 252">
  <path
    fill="#000"
    stroke="#000"
    stroke-width="1.3"
    d="M155.2 2.4a79.5 79.5 0 0 0-53.9 40.4c-7.8 15.6-6.1 18.8-6.1 77.1V173h86.5L151 142c-32-32.3-35.8-37.4-39-51.8a59.5 59.5 0 0 1 49-70.7 58.8 58.8 0 0 1 64.5 40.7c2 6.2 2.4 11 2 20.1-.7 18.3-5 26.4-24.4 46L188 141.8l15.6 15.6 15.7 15.6H244.5l-15.7-15.7-15.7-15.7 8.6-8.4a73.5 73.5 0 0 0 23.8-55.5 71.3 71.3 0 0 0-24.7-56.2A88 88 0 0 0 203.6 9a82.1 82.1 0 0 0-48.4-6.7Z"
  />
  <path
    fill="#FF5757"
    stroke="#FF5757"
    stroke-width="1.3"
    d="M161 46.2a32 32 0 0 0-23.8 32.1c0 9.8 4.9 18 19.5 32.4l13.2 13 12.8-13c15.3-15.6 18.8-21.7 18.8-33 0-13-6-23.5-16.7-29a41 41 0 0 0-23.9-2.5Zm17.2 19.6c3.6 2.3 5.6 7 5.6 12.8 0 6.1-7.5 13-14.2 13-13.2 0-19.6-15.3-10-24.2 2-1.9 4.5-3.8 5.6-4.2 2.8-1 9.3.2 13 2.6Z"
  />
  <path
    fill="#fff"
    stroke="#fff"
    stroke-width="1.3"
    d="M162.2 65.7c-15 8.2-1.6 31.8 13.6 24 5.8-3 8.7-10 6.7-16.1-3-8.8-12-12.3-20.3-7.9Z"
  />
  <path
    fill="#000"
    d="M327 242.3h11.6v8.7h-22.2v-48.5h22.2v8.5h-11.7v11.4h11v8.3h-11v11.6ZM291.5 231.1V251H281v-48.5h18.6c6.2 0 9.3 3.3 9.3 9.9v5.6c0 4-1.4 6.6-4.2 7.7 2.5.9 3.7 2.9 3.7 6.1V251H298v-18.4c0-1-.5-1.5-1.4-1.5h-5Zm0-21.5v14.2h5.5c.4 0 .7-.2 1-.5.3-.3.4-.6.4-1V211c0-.4-.1-.8-.4-1-.3-.3-.6-.5-1-.5h-5.5ZM272.5 211.6V242c0 6.5-3.1 9.8-9.3 9.8h-10c-6.2 0-9.3-3.3-9.3-9.8v-30.3c0-6.6 3-9.9 9.3-9.9h10c6.2 0 9.3 3.3 9.3 10ZM262 243.1v-32.8c0-.4-.2-.7-.5-1-.2-.3-.6-.5-1-.5h-4.7c-.4 0-.7.2-1 .5-.3.3-.4.6-.4 1v32.8a1.4 1.4 0 0 0 1.4 1.5h4.7c.4 0 .8-.2 1-.5.3-.3.5-.7.5-1ZM226.9 243v-7.4h10v6.3c0 6.5-3.2 9.8-9.4 9.8h-9.4c-6.2 0-9.3-3.3-9.3-9.8v-30.3c0-6.6 3-9.9 9.3-9.9h9.4c6.2 0 9.3 3.3 9.3 10v4.5h-10v-5.8c0-.5 0-.8-.4-1.1-.2-.3-.6-.5-1-.5h-4.7c-.4 0-.7.2-1 .5-.3.3-.4.6-.4 1v32.8a1.4 1.4 0 0 0 1.4 1.5h4.7c.4 0 .8-.2 1-.5.3-.3.5-.7.5-1ZM200.6 215.2h-10v-3.8c0-.4-.1-.8-.4-1-.3-.3-.6-.5-1-.5h-4.1c-.4 0-.8.2-1 .4-.3.3-.4.7-.4 1.1v8.6c0 .4 0 .8.3 1 .3.4.7.5 1 .5h6.8c6.2.1 9.3 3.4 9.3 10v10.3c0 6.6-3 10-9.3 10H183c-6.2 0-9.3-3.4-9.3-10v-5h10v5.4c0 .4 0 .8.3 1 .3.4.7.5 1 .5h4.7c.4 0 .8-.1 1-.4.3-.3.5-.7.5-1v-9.6c0-.4-.2-.8-.5-1-.2-.3-.6-.5-1-.5H183c-6.2 0-9.3-3.3-9.3-9.9v-9.7c0-6.6 3-9.9 9.3-9.9h8.3c6.2 0 9.3 3.3 9.3 10v3.5ZM148.7 231.1V251h-10.5v-48.5H157c6.2 0 9.3 3.3 9.3 9.9v5.6c0 4-1.4 6.6-4.3 7.7 2.5.9 3.8 2.9 3.8 6.1V251h-10.5v-18.4c0-1-.5-1.5-1.5-1.5h-5Zm0-21.5v14.2h5.6c.4 0 .7-.2 1-.5.2-.3.4-.6.4-1V211c0-.4-.2-.8-.5-1-.2-.3-.5-.5-1-.5h-5.5ZM119.8 242.3h11.6v8.7h-22.1v-48.5h22.1v8.5h-11.6v11.4h10.8v8.3h-10.8v11.6ZM91.4 202.5c6.2 0 9.3 3.3 9.3 9.9V241c0 6.6-3.1 9.9-9.3 9.9H72.1v-48.5h19.3Zm-1.2 39.8v-31.2c0-.4-.2-.8-.5-1-.2-.3-.5-.5-1-.5h-6v34.2h6c.5 0 .8-.2 1-.5.3-.3.5-.6.5-1ZM64.3 251H53.8v-40.3c0-.4-.1-.7-.4-1-.3-.3-.6-.5-1-.5h-4c-.4 0-.8.2-1 .5-.3.3-.5.6-.5 1V251H36.4v-39.4c0-6.6 3.1-9.9 9.3-9.9H55c6.2 0 9.3 3.3 9.3 10V251ZM18 202.5h10.6v39.3c0 6.6-3.1 10-9.3 10H10c-6.2 0-9.3-3.4-9.3-10v-39.3h10.5v40.3a1.4 1.4 0 0 0 1.4 1.5h4c.4 0 .8-.2 1-.5.3-.3.5-.7.5-1v-40.3Z"
  />
</svg>